# Blender 4.1.1
# www.blender.org
o Sphere
v 0.000000 0.382683 -0.923880
v 0.000000 0.000000 -1.000000
v 0.000000 -0.382683 -0.923880
v 0.000000 -0.923880 -0.382683
v 0.146447 0.923880 -0.353553
v 0.270598 0.707107 -0.653281
v 0.353553 0.382683 -0.853553
v 0.382683 0.000000 -0.923880
v 0.353553 -0.382683 -0.853553
v 0.270598 -0.707107 -0.653281
v 0.146447 -0.923880 -0.353553
v 0.270598 0.923880 -0.270598
v 0.500000 0.707107 -0.500000
v 0.653282 0.382683 -0.653281
v 0.707107 0.000000 -0.707107
v 0.653282 -0.382683 -0.653281
v 0.500000 -0.707107 -0.500000
v 0.270598 -0.923880 -0.270598
v 0.353553 0.923880 -0.146447
v 0.653281 0.707107 -0.270598
v 0.853553 0.382683 -0.353553
v 0.923880 0.000000 -0.382683
v 0.853553 -0.382683 -0.353553
v 0.653281 -0.707107 -0.270598
v 0.353553 -0.923880 -0.146447
v 0.382683 0.923880 0.000000
v 0.707107 0.707107 0.000000
v 0.923880 0.382683 0.000000
v 1.000000 0.000000 0.000000
v 0.923880 -0.382683 0.000000
v 0.707107 -0.707107 0.000000
v 0.382683 -0.923880 0.000000
v 0.353553 0.923880 0.146447
v 0.653281 0.707107 0.270598
v 0.853553 0.382683 0.353554
v 0.923879 0.000000 0.382684
v 0.853553 -0.382683 0.353554
v 0.653281 -0.707107 0.270598
v 0.353553 -0.923880 0.146447
v 0.270598 0.923880 0.270598
v 0.500000 0.707107 0.500000
v 0.653281 0.382683 0.653282
v 0.707107 0.000000 0.707107
v 0.653281 -0.382683 0.653282
v 0.500000 -0.707107 0.500000
v 0.270598 -0.923880 0.270598
v 0.146447 0.923880 0.353553
v 0.270598 0.707107 0.653281
v 0.353553 0.382683 0.853553
v 0.382683 0.000000 0.923880
v 0.353553 -0.382683 0.853553
v 0.270598 -0.707107 0.653281
v 0.146447 -0.923880 0.353553
v -0.000000 0.923880 0.382683
v -0.000000 0.707107 0.707107
v -0.000000 0.382683 0.923879
v -0.000000 0.000000 1.000000
v -0.000000 -0.382683 0.923879
v -0.000000 -0.707107 0.707107
v -0.000000 -0.923880 0.382683
v 0.000000 -1.000000 0.000000
v 0.000000 1.000000 0.000000
v -0.146447 0.923880 0.353553
v -0.270598 0.707107 0.653281
v -0.353554 0.382683 0.853553
v -0.382684 0.000000 0.923879
v -0.353554 -0.382683 0.853553
v -0.270598 -0.707107 0.653281
v -0.146447 -0.923880 0.353553
v -0.270598 0.923880 0.270598
v -0.500000 0.707107 0.500000
v -0.653282 0.382683 0.653281
v -0.707107 0.000000 0.707106
v -0.653282 -0.382683 0.653281
v -0.500000 -0.707107 0.500000
v -0.270598 -0.923880 0.270598
v -0.353553 0.923880 0.146446
v -0.653281 0.707107 0.270598
v -0.853553 0.382683 0.353553
v -0.923880 0.000000 0.382683
v -0.853553 -0.382683 0.353553
v -0.653281 -0.707107 0.270598
v -0.353553 -0.923880 0.146446
v -0.382683 0.923880 -0.000000
v -0.707107 0.707107 -0.000000
v -0.923879 0.382683 -0.000000
v -1.000000 0.000000 -0.000001
v -0.923879 -0.382683 -0.000000
v -0.707107 -0.707107 -0.000000
v -0.382683 -0.923880 -0.000000
v -0.353553 0.923880 -0.146447
v -0.653281 0.707107 -0.270598
v -0.853553 0.382683 -0.353554
v -0.923879 0.000000 -0.382684
v -0.853553 -0.382683 -0.353554
v -0.653281 -0.707107 -0.270598
v -0.353553 -0.923880 -0.146447
v -0.270598 0.923880 -0.270598
v -0.500000 0.707107 -0.500000
v -0.653281 0.382683 -0.653282
v -0.707106 0.000000 -0.707107
v -0.653281 -0.382683 -0.653282
v -0.500000 -0.707107 -0.500000
v -0.270598 -0.923880 -0.270598
v -0.146446 0.923880 -0.353554
v -0.270598 0.707107 -0.653281
v -0.353553 0.382683 -0.853553
v -0.382683 0.000000 -0.923880
v -0.353553 -0.382683 -0.853553
v -0.270598 -0.707107 -0.653281
v -0.146446 -0.923880 -0.353554
v 0.000000 0.923880 -0.382683
v 0.000000 0.707107 -0.707107
v 0.000000 -0.707107 -0.707107
vn -0.0000 0.3744 -0.9273
vn -0.0000 -0.0000 -1.0000
vn -0.0000 -0.3744 -0.9273
vn -0.0000 -0.9152 -0.4031
vn 0.1543 0.9152 -0.3724
vn 0.2751 0.6952 -0.6641
vn 0.3549 0.3744 -0.8567
vn 0.3827 -0.0000 -0.9239
vn 0.3549 -0.3744 -0.8567
vn 0.2751 -0.6952 -0.6641
vn 0.1543 -0.9152 -0.3724
vn 0.2850 0.9152 -0.2850
vn 0.5083 0.6952 -0.5083
vn 0.6557 0.3744 -0.6557
vn 0.7071 -0.0000 -0.7071
vn 0.6557 -0.3744 -0.6557
vn 0.5083 -0.6952 -0.5083
vn 0.2850 -0.9152 -0.2850
vn 0.3724 0.9152 -0.1543
vn 0.6641 0.6952 -0.2751
vn 0.8567 0.3744 -0.3549
vn 0.9239 -0.0000 -0.3827
vn 0.8567 -0.3744 -0.3549
vn 0.6641 -0.6952 -0.2751
vn 0.3724 -0.9152 -0.1543
vn 0.4031 0.9152 -0.0000
vn 0.7189 0.6952 -0.0000
vn 0.9273 0.3744 -0.0000
vn 1.0000 -0.0000 -0.0000
vn 0.9273 -0.3744 -0.0000
vn 0.7189 -0.6952 -0.0000
vn 0.4031 -0.9152 -0.0000
vn 0.3724 0.9152 0.1543
vn 0.6641 0.6952 0.2751
vn 0.8567 0.3744 0.3549
vn 0.9239 -0.0000 0.3827
vn 0.8567 -0.3744 0.3549
vn 0.6641 -0.6952 0.2751
vn 0.3724 -0.9152 0.1543
vn 0.2850 0.9152 0.2850
vn 0.5083 0.6952 0.5083
vn 0.6557 0.3744 0.6557
vn 0.7071 -0.0000 0.7071
vn 0.6557 -0.3744 0.6557
vn 0.5083 -0.6952 0.5083
vn 0.2850 -0.9152 0.2850
vn 0.1543 0.9152 0.3724
vn 0.2751 0.6952 0.6641
vn 0.3549 0.3744 0.8567
vn 0.3827 -0.0000 0.9239
vn 0.3549 -0.3744 0.8567
vn 0.2751 -0.6952 0.6641
vn 0.1543 -0.9152 0.3724
vn -0.0000 0.9152 0.4031
vn -0.0000 0.6952 0.7189
vn -0.0000 0.3744 0.9273
vn -0.0000 -0.0000 1.0000
vn -0.0000 -0.3744 0.9273
vn -0.0000 -0.6952 0.7189
vn -0.0000 -0.9152 0.4031
vn -0.0000 -1.0000 -0.0000
vn -0.0000 1.0000 -0.0000
vn -0.1543 0.9152 0.3724
vn -0.2751 0.6952 0.6641
vn -0.3549 0.3744 0.8567
vn -0.3827 -0.0000 0.9239
vn -0.3549 -0.3744 0.8567
vn -0.2751 -0.6952 0.6641
vn -0.1543 -0.9152 0.3724
vn -0.2850 0.9152 0.2850
vn -0.5083 0.6952 0.5083
vn -0.6557 0.3744 0.6557
vn -0.7071 -0.0000 0.7071
vn -0.6557 -0.3744 0.6557
vn -0.5083 -0.6952 0.5083
vn -0.2850 -0.9152 0.2850
vn -0.3724 0.9152 0.1543
vn -0.6641 0.6952 0.2751
vn -0.8567 0.3744 0.3549
vn -0.9239 -0.0000 0.3827
vn -0.8567 -0.3744 0.3549
vn -0.6641 -0.6952 0.2751
vn -0.3724 -0.9152 0.1543
vn -0.4031 0.9152 -0.0000
vn -0.7189 0.6952 -0.0000
vn -0.9273 0.3744 -0.0000
vn -1.0000 -0.0000 -0.0000
vn -0.9273 -0.3744 -0.0000
vn -0.7189 -0.6952 -0.0000
vn -0.4031 -0.9152 -0.0000
vn -0.3724 0.9152 -0.1543
vn -0.6641 0.6952 -0.2751
vn -0.8567 0.3744 -0.3549
vn -0.9239 -0.0000 -0.3827
vn -0.8567 -0.3744 -0.3549
vn -0.6641 -0.6952 -0.2751
vn -0.3724 -0.9152 -0.1543
vn -0.2850 0.9152 -0.2850
vn -0.5083 0.6952 -0.5083
vn -0.6557 0.3744 -0.6557
vn -0.7071 -0.0000 -0.7071
vn -0.6557 -0.3744 -0.6557
vn -0.5083 -0.6952 -0.5083
vn -0.2850 -0.9152 -0.2850
vn -0.1543 0.9152 -0.3724
vn -0.2751 0.6952 -0.6641
vn -0.3549 0.3744 -0.8567
vn -0.3827 -0.0000 -0.9239
vn -0.3549 -0.3744 -0.8567
vn -0.2751 -0.6952 -0.6641
vn -0.1543 -0.9152 -0.3724
vn -0.0000 0.9152 -0.4031
vn -0.0000 0.6952 -0.7189
vn -0.0000 -0.6952 -0.7189
s 1
f 2//2 9//9 3//3
f 113//113 7//7 1//1
f 112//112 62//62 5//5
f 61//61 4//4 11//11
f 114//114 9//9 10//10
f 1//1 8//8 2//2
f 113//113 5//5 6//6
f 114//114 11//11 4//4
f 61//61 11//11 18//18
f 9//9 17//17 10//10
f 7//7 15//15 8//8
f 5//5 13//13 6//6
f 10//10 18//18 11//11
f 9//9 15//15 16//16
f 6//6 14//14 7//7
f 5//5 62//62 12//12
f 12//12 20//20 13//13
f 17//17 25//25 18//18
f 15//15 23//23 16//16
f 13//13 21//21 14//14
f 12//12 62//62 19//19
f 61//61 18//18 25//25
f 17//17 23//23 24//24
f 15//15 21//21 22//22
f 24//24 32//32 25//25
f 23//23 29//29 30//30
f 21//21 27//27 28//28
f 19//19 62//62 26//26
f 61//61 25//25 32//32
f 23//23 31//31 24//24
f 21//21 29//29 22//22
f 19//19 27//27 20//20
f 26//26 62//62 33//33
f 61//61 32//32 39//39
f 30//30 38//38 31//31
f 28//28 36//36 29//29
f 27//27 33//33 34//34
f 32//32 38//38 39//39
f 29//29 37//37 30//30
f 27//27 35//35 28//28
f 37//37 45//45 38//38
f 36//36 42//42 43//43
f 34//34 40//40 41//41
f 39//39 45//45 46//46
f 36//36 44//44 37//37
f 34//34 42//42 35//35
f 33//33 62//62 40//40
f 61//61 39//39 46//46
f 45//45 53//53 46//46
f 44//44 50//50 51//51
f 41//41 49//49 42//42
f 40//40 62//62 47//47
f 61//61 46//46 53//53
f 45//45 51//51 52//52
f 42//42 50//50 43//43
f 40//40 48//48 41//41
f 50//50 58//58 51//51
f 48//48 56//56 49//49
f 47//47 62//62 54//54
f 61//61 53//53 60//60
f 51//51 59//59 52//52
f 50//50 56//56 57//57
f 47//47 55//55 48//48
f 53//53 59//59 60//60
f 61//61 60//60 69//69
f 59//59 67//67 68//68
f 56//56 66//66 57//57
f 54//54 64//64 55//55
f 59//59 69//69 60//60
f 57//57 67//67 58//58
f 55//55 65//65 56//56
f 54//54 62//62 63//63
f 66//66 72//72 73//73
f 63//63 71//71 64//64
f 69//69 75//75 76//76
f 66//66 74//74 67//67
f 64//64 72//72 65//65
f 63//63 62//62 70//70
f 61//61 69//69 76//76
f 68//68 74//74 75//75
f 75//75 83//83 76//76
f 73//73 81//81 74//74
f 71//71 79//79 72//72
f 70//70 62//62 77//77
f 61//61 76//76 83//83
f 75//75 81//81 82//82
f 73//73 79//79 80//80
f 70//70 78//78 71//71
f 78//78 86//86 79//79
f 77//77 62//62 84//84
f 61//61 83//83 90//90
f 82//82 88//88 89//89
f 80//80 86//86 87//87
f 78//78 84//84 85//85
f 82//82 90//90 83//83
f 80//80 88//88 81//81
f 61//61 90//90 97//97
f 88//88 96//96 89//89
f 87//87 93//93 94//94
f 84//84 92//92 85//85
f 89//89 97//97 90//90
f 87//87 95//95 88//88
f 85//85 93//93 86//86
f 84//84 62//62 91//91
f 91//91 99//99 92//92
f 96//96 104//104 97//97
f 94//94 102//102 95//95
f 92//92 100//100 93//93
f 91//91 62//62 98//98
f 61//61 97//97 104//104
f 96//96 102//102 103//103
f 94//94 100//100 101//101
f 103//103 111//111 104//104
f 101//101 109//109 102//102
f 99//99 107//107 100//100
f 98//98 62//62 105//105
f 61//61 104//104 111//111
f 103//103 109//109 110//110
f 101//101 107//107 108//108
f 98//98 106//106 99//99
f 105//105 62//62 112//112
f 61//61 111//111 4//4
f 110//110 3//3 114//114
f 107//107 2//2 108//108
f 106//106 112//112 113//113
f 110//110 4//4 111//111
f 108//108 3//3 109//109
f 106//106 1//1 107//107
f 2//2 8//8 9//9
f 113//113 6//6 7//7
f 114//114 3//3 9//9
f 1//1 7//7 8//8
f 113//113 112//112 5//5
f 114//114 10//10 11//11
f 9//9 16//16 17//17
f 7//7 14//14 15//15
f 5//5 12//12 13//13
f 10//10 17//17 18//18
f 9//9 8//8 15//15
f 6//6 13//13 14//14
f 12//12 19//19 20//20
f 17//17 24//24 25//25
f 15//15 22//22 23//23
f 13//13 20//20 21//21
f 17//17 16//16 23//23
f 15//15 14//14 21//21
f 24//24 31//31 32//32
f 23//23 22//22 29//29
f 21//21 20//20 27//27
f 23//23 30//30 31//31
f 21//21 28//28 29//29
f 19//19 26//26 27//27
f 30//30 37//37 38//38
f 28//28 35//35 36//36
f 27//27 26//26 33//33
f 32//32 31//31 38//38
f 29//29 36//36 37//37
f 27//27 34//34 35//35
f 37//37 44//44 45//45
f 36//36 35//35 42//42
f 34//34 33//33 40//40
f 39//39 38//38 45//45
f 36//36 43//43 44//44
f 34//34 41//41 42//42
f 45//45 52//52 53//53
f 44//44 43//43 50//50
f 41//41 48//48 49//49
f 45//45 44//44 51//51
f 42//42 49//49 50//50
f 40//40 47//47 48//48
f 50//50 57//57 58//58
f 48//48 55//55 56//56
f 51//51 58//58 59//59
f 50//50 49//49 56//56
f 47//47 54//54 55//55
f 53//53 52//52 59//59
f 59//59 58//58 67//67
f 56//56 65//65 66//66
f 54//54 63//63 64//64
f 59//59 68//68 69//69
f 57//57 66//66 67//67
f 55//55 64//64 65//65
f 66//66 65//65 72//72
f 63//63 70//70 71//71
f 69//69 68//68 75//75
f 66//66 73//73 74//74
f 64//64 71//71 72//72
f 68//68 67//67 74//74
f 75//75 82//82 83//83
f 73//73 80//80 81//81
f 71//71 78//78 79//79
f 75//75 74//74 81//81
f 73//73 72//72 79//79
f 70//70 77//77 78//78
f 78//78 85//85 86//86
f 82//82 81//81 88//88
f 80//80 79//79 86//86
f 78//78 77//77 84//84
f 82//82 89//89 90//90
f 80//80 87//87 88//88
f 88//88 95//95 96//96
f 87//87 86//86 93//93
f 84//84 91//91 92//92
f 89//89 96//96 97//97
f 87//87 94//94 95//95
f 85//85 92//92 93//93
f 91//91 98//98 99//99
f 96//96 103//103 104//104
f 94//94 101//101 102//102
f 92//92 99//99 100//100
f 96//96 95//95 102//102
f 94//94 93//93 100//100
f 103//103 110//110 111//111
f 101//101 108//108 109//109
f 99//99 106//106 107//107
f 103//103 102//102 109//109
f 101//101 100//100 107//107
f 98//98 105//105 106//106
f 110//110 109//109 3//3
f 107//107 1//1 2//2
f 106//106 105//105 112//112
f 110//110 114//114 4//4
f 108//108 2//2 3//3
f 106//106 113//113 1//1
