# Blender 4.1.1
# www.blender.org
o Sphere
v 0.000000 1.000000 0.000000
v 0.345491 0.809017 -0.475528
v 0.559017 0.309017 -0.769421
v 0.559017 -0.309017 -0.769421
v 0.345491 -0.809017 -0.475528
v 0.559017 0.809017 -0.181636
v 0.904509 0.309017 -0.293893
v 0.904509 -0.309017 -0.293893
v 0.559017 -0.809017 -0.181636
v 0.559017 0.809017 0.181636
v 0.904509 0.309017 0.293893
v 0.904509 -0.309017 0.293893
v 0.559017 -0.809017 0.181636
v 0.345492 0.809017 0.475528
v 0.559017 0.309017 0.769421
v 0.559017 -0.309017 0.769421
v 0.345492 -0.809017 0.475528
v 0.000000 0.809017 0.587785
v 0.000000 0.309017 0.951057
v 0.000000 -0.309017 0.951057
v 0.000000 -0.809017 0.587785
v -0.345491 0.809017 0.475528
v -0.559017 0.309017 0.769421
v -0.559017 -0.309017 0.769421
v -0.345491 -0.809017 0.475528
v -0.559017 0.809017 0.181636
v -0.904508 0.309017 0.293893
v -0.904508 -0.309017 0.293893
v -0.559017 -0.809017 0.181636
v 0.000000 -1.000000 0.000000
v -0.559017 0.809017 -0.181636
v -0.904509 0.309017 -0.293893
v -0.904509 -0.309017 -0.293893
v -0.559017 -0.809017 -0.181636
v -0.345492 0.809017 -0.475528
v -0.559017 0.309017 -0.769421
v -0.559017 -0.309017 -0.769421
v -0.345492 -0.809017 -0.475528
v -0.000000 0.809017 -0.587785
v -0.000000 0.309017 -0.951056
v -0.000000 -0.309017 -0.951056
v -0.000000 -0.809017 -0.587785
vn -0.0000 1.0000 -0.0000
vn 0.3675 0.7804 -0.5058
vn 0.5621 0.2925 -0.7736
vn 0.5621 -0.2925 -0.7736
vn 0.3675 -0.7804 -0.5058
vn 0.5946 0.7804 -0.1932
vn 0.9095 0.2925 -0.2955
vn 0.9095 -0.2925 -0.2955
vn 0.5946 -0.7804 -0.1932
vn 0.5946 0.7804 0.1932
vn 0.9095 0.2925 0.2955
vn 0.9095 -0.2925 0.2955
vn 0.5946 -0.7804 0.1932
vn 0.3675 0.7804 0.5058
vn 0.5621 0.2925 0.7736
vn 0.5621 -0.2925 0.7736
vn 0.3675 -0.7804 0.5058
vn -0.0000 0.7804 0.6252
vn -0.0000 0.2925 0.9563
vn -0.0000 -0.2925 0.9563
vn -0.0000 -0.7804 0.6252
vn -0.3675 0.7804 0.5058
vn -0.5621 0.2925 0.7736
vn -0.5621 -0.2925 0.7736
vn -0.3675 -0.7804 0.5058
vn -0.5946 0.7804 0.1932
vn -0.9095 0.2925 0.2955
vn -0.9095 -0.2925 0.2955
vn -0.5946 -0.7804 0.1932
vn -0.0000 -1.0000 -0.0000
vn -0.5946 0.7804 -0.1932
vn -0.9095 0.2925 -0.2955
vn -0.9095 -0.2925 -0.2955
vn -0.5946 -0.7804 -0.1932
vn -0.3675 0.7804 -0.5058
vn -0.5621 0.2925 -0.7736
vn -0.5621 -0.2925 -0.7736
vn -0.3675 -0.7804 -0.5058
vn -0.0000 0.7804 -0.6252
vn -0.0000 0.2925 -0.9563
vn -0.0000 -0.2925 -0.9563
vn -0.0000 -0.7804 -0.6252
s 1
f 30//30 42//42 5//5
f 40//40 4//4 41//41
f 39//39 1//1 2//2
f 41//41 5//5 42//42
f 40//40 2//2 3//3
f 3//3 6//6 7//7
f 30//30 5//5 9//9
f 3//3 8//8 4//4
f 2//2 1//1 6//6
f 5//5 8//8 9//9
f 6//6 11//11 7//7
f 30//30 9//9 13//13
f 7//7 12//12 8//8
f 6//6 1//1 10//10
f 8//8 13//13 9//9
f 10//10 15//15 11//11
f 30//30 13//13 17//17
f 11//11 16//16 12//12
f 10//10 1//1 14//14
f 12//12 17//17 13//13
f 14//14 19//19 15//15
f 30//30 17//17 21//21
f 15//15 20//20 16//16
f 14//14 1//1 18//18
f 16//16 21//21 17//17
f 19//19 22//22 23//23
f 30//30 21//21 25//25
f 19//19 24//24 20//20
f 18//18 1//1 22//22
f 20//20 25//25 21//21
f 22//22 27//27 23//23
f 30//30 25//25 29//29
f 23//23 28//28 24//24
f 22//22 1//1 26//26
f 25//25 28//28 29//29
f 26//26 32//32 27//27
f 30//30 29//29 34//34
f 27//27 33//33 28//28
f 26//26 1//1 31//31
f 28//28 34//34 29//29
f 31//31 36//36 32//32
f 30//30 34//34 38//38
f 32//32 37//37 33//33
f 31//31 1//1 35//35
f 33//33 38//38 34//34
f 35//35 40//40 36//36
f 30//30 38//38 42//42
f 36//36 41//41 37//37
f 35//35 1//1 39//39
f 38//38 41//41 42//42
f 40//40 3//3 4//4
f 41//41 4//4 5//5
f 40//40 39//39 2//2
f 3//3 2//2 6//6
f 3//3 7//7 8//8
f 5//5 4//4 8//8
f 6//6 10//10 11//11
f 7//7 11//11 12//12
f 8//8 12//12 13//13
f 10//10 14//14 15//15
f 11//11 15//15 16//16
f 12//12 16//16 17//17
f 14//14 18//18 19//19
f 15//15 19//19 20//20
f 16//16 20//20 21//21
f 19//19 18//18 22//22
f 19//19 23//23 24//24
f 20//20 24//24 25//25
f 22//22 26//26 27//27
f 23//23 27//27 28//28
f 25//25 24//24 28//28
f 26//26 31//31 32//32
f 27//27 32//32 33//33
f 28//28 33//33 34//34
f 31//31 35//35 36//36
f 32//32 36//36 37//37
f 33//33 37//37 38//38
f 35//35 39//39 40//40
f 36//36 40//40 41//41
f 38//38 37//37 41//41
